<svg xmlns="http://www.w3.org/2000/svg" aria-hidden="true" style="position:absolute;width:0;height:0;overflow:hidden">
  <defs>
    <symbol id="icon-mobile-close" viewBox="0 0 32 32">
      <path fill="none" stroke="#f6f5ef" stroke-linecap="round" stroke-linejoin="round" stroke-width="1.733" d="M24 8 8 24M8 8l16 16" style="stroke:var(--color1, #f6f5ef)"/>
    </symbol>

  <symbol id="icon-burger-menu" viewBox="0 0 32 32">
      <path  d="M2.667 7.993c0-.733.595-1.327 1.327-1.327h10.68a1.326 1.326 0 0 1 0 2.654H3.994a1.326 1.326 0 0 1-1.327-1.327zm0 8.007c0-.733.595-1.327 1.327-1.327h24.013a1.326 1.326 0 0 1 0 2.654H3.994A1.326 1.326 0 0 1 2.667 16zm1.326 6.68a1.326 1.326 0 0 0 0 2.654h16.013a1.326 1.326 0 0 0 0-2.654H3.993z" />
    </symbol>

      
     

<symbol id="logo" width="20" height="23" viewBox="0 0 34 32" x="0" y="0">
<path fill="#93abae" d="M15.089 11.089v11.089h2.016v-22.179h-2.016v11.089z"></path>
<path fill="#93abae" d="M19.122 10.764v7.785l0.345-0.039c2.25-0.28 5.359-0.208 7.46 0.169 1.236 0.221 1.476 0.228 1.672 0.046 0.28-0.26 0.293-0.397 0.15-1.223-1.015-5.691-4.156-10.66-8.891-14.068-0.28-0.202-0.566-0.39-0.624-0.416-0.104-0.039-0.111 0.442-0.111 7.746z"></path>
<path fill="#93abae" d="M12.859 8.696c-0.267 0.468-1.080 1.639-1.633 2.374-1.704 2.263-4.085 4.592-6.569 6.426-0.709 0.52-0.872 0.761-0.748 1.086 0.039 0.098 0.13 0.247 0.202 0.332l0.137 0.143h8.826v-5.301c0-2.914-0.013-5.301-0.033-5.301s-0.104 0.111-0.182 0.241z"></path>
<path fill="#93abae" d="M0.859 24.358c-0.332 0.273-0.332 0.488-0.006 1.112l0.28 0.546h31.311l0.345-0.468c0.293-0.39 0.345-0.507 0.345-0.728-0.007-0.202-0.052-0.299-0.215-0.442l-0.202-0.182h-31.662l-0.195 0.163z"></path>
<path fill="#93abae" d="M2.276 28.104c0 0.098 1.392 2.738 1.646 3.115 0.104 0.163 0.286 0.39 0.39 0.507l0.202 0.208h21.405l0.65-0.319c0.722-0.358 1.535-0.885 2.179-1.405 0.475-0.39 1.639-1.567 1.912-1.938l0.182-0.241h-14.283c-10.686 0-14.283 0.020-14.283 0.072z"></path>
</symbol>
</svg>

    

  </defs>
</svg>