<?xml version="1.0" encoding="utf-8"?>
<!-- Generated by IcoMoon.io -->
<svg version="1.1" xmlns="http://www.w3.org/2000/svg" xmlns:xlink="http://www.w3.org/1999/xlink" width="752" height="32" viewBox="0 0 752 32">
<svg id="icon-logo" width="34" height="32" viewBox="0 0 34 32" x="0" y="0">
<path fill="#93abae" d="M15.089 11.089v11.089h2.016v-22.179h-2.016v11.089z"></path>
<path fill="#93abae" d="M19.122 10.764v7.785l0.345-0.039c2.25-0.28 5.359-0.208 7.46 0.169 1.236 0.221 1.476 0.228 1.672 0.046 0.28-0.26 0.293-0.397 0.15-1.223-1.015-5.691-4.156-10.66-8.891-14.068-0.28-0.202-0.566-0.39-0.624-0.416-0.104-0.039-0.111 0.442-0.111 7.746z"></path>
<path fill="#93abae" d="M12.859 8.696c-0.267 0.468-1.080 1.639-1.633 2.374-1.704 2.263-4.085 4.592-6.569 6.426-0.709 0.52-0.872 0.761-0.748 1.086 0.039 0.098 0.13 0.247 0.202 0.332l0.137 0.143h8.826v-5.301c0-2.914-0.013-5.301-0.033-5.301s-0.104 0.111-0.182 0.241z"></path>
<path fill="#93abae" d="M0.859 24.358c-0.332 0.273-0.332 0.488-0.006 1.112l0.28 0.546h31.311l0.345-0.468c0.293-0.39 0.345-0.507 0.345-0.728-0.007-0.202-0.052-0.299-0.215-0.442l-0.202-0.182h-31.662l-0.195 0.163z"></path>
<path fill="#93abae" d="M2.276 28.104c0 0.098 1.392 2.738 1.646 3.115 0.104 0.163 0.286 0.39 0.39 0.507l0.202 0.208h21.405l0.65-0.319c0.722-0.358 1.535-0.885 2.179-1.405 0.475-0.39 1.639-1.567 1.912-1.938l0.182-0.241h-14.283c-10.686 0-14.283 0.020-14.283 0.072z"></path>
</svg>
</svg>
