<svg width="197" height="25" viewBox="0 0 197 25" fill="none" xmlns="http://www.w3.org/2000/svg">
<g filter="url(#filter0_d_3500_19)">
<mask id="path-1-outside-1_3500_19" maskUnits="userSpaceOnUse" x="4.06677" y="0.984009" width="189" height="16" fill="black">
<rect fill="white" x="4.06677" y="0.984009" width="189" height="16"/>
<path d="M10.2968 14.8V10.318L6.06677 2.20001H8.67677L11.4668 8.01401L14.2388 2.20001H16.8128L12.6008 10.318V14.8H10.2968Z"/>
<path d="M16.5598 14.8L21.1678 2.20001H23.7598L28.3678 14.8H25.9198L24.9118 11.884H19.9978L18.9718 14.8H16.5598ZM20.6278 10.084H24.2818L22.4458 4.84601L20.6278 10.084Z"/>
<path d="M35.5162 15.016C34.2442 15.016 33.1522 14.746 32.2402 14.206C31.3282 13.654 30.6262 12.892 30.1342 11.92C29.6422 10.936 29.3962 9.80201 29.3962 8.51801C29.3962 7.23401 29.6422 6.10001 30.1342 5.11601C30.6262 4.13201 31.3282 3.36401 32.2402 2.81201C33.1522 2.26001 34.2442 1.98401 35.5162 1.98401C37.0282 1.98401 38.2642 2.36201 39.2242 3.11801C40.1962 3.86201 40.8022 4.91201 41.0422 6.26801H38.5042C38.3482 5.58401 38.0122 5.05001 37.4962 4.66601C36.9922 4.27001 36.3202 4.07201 35.4802 4.07201C34.3162 4.07201 33.4042 4.46801 32.7442 5.26001C32.0842 6.05201 31.7542 7.13801 31.7542 8.51801C31.7542 9.89801 32.0842 10.984 32.7442 11.776C33.4042 12.556 34.3162 12.946 35.4802 12.946C36.3202 12.946 36.9922 12.766 37.4962 12.406C38.0122 12.034 38.3482 11.524 38.5042 10.876H41.0422C40.8022 12.172 40.1962 13.186 39.2242 13.918C38.2642 14.65 37.0282 15.016 35.5162 15.016Z"/>
<path d="M43.6217 14.8V2.20001H45.9257V7.43801H51.5777V2.20001H53.8817V14.8H51.5777V9.31001H45.9257V14.8H43.6217Z"/>
<path d="M59.8046 14.8V4.05401H56.1326V2.20001H65.7986V4.05401H62.1087V14.8H59.8046Z"/>
<path d="M72.0645 14.8L76.6725 2.20001H79.2645L83.8725 14.8H81.4245L80.4165 11.884H75.5025L74.4765 14.8H72.0645ZM76.1325 10.084H79.7865L77.9505 4.84601L76.1325 10.084Z"/>
<path d="M86.0356 14.8V2.20001H90.3376C91.8136 2.20001 93.0256 2.46401 93.9736 2.99201C94.9336 3.50801 95.6416 4.24001 96.0976 5.18801C96.5656 6.12401 96.7996 7.22801 96.7996 8.50001C96.7996 9.77201 96.5656 10.882 96.0976 11.83C95.6416 12.766 94.9336 13.498 93.9736 14.026C93.0256 14.542 91.8136 14.8 90.3376 14.8H86.0356ZM88.3396 12.82H90.2296C91.2856 12.82 92.1196 12.652 92.7316 12.316C93.3436 11.968 93.7816 11.476 94.0456 10.84C94.3096 10.192 94.4416 9.41201 94.4416 8.50001C94.4416 7.60001 94.3096 6.82601 94.0456 6.17801C93.7816 5.53001 93.3436 5.03201 92.7316 4.68401C92.1196 4.33601 91.2856 4.16201 90.2296 4.16201H88.3396V12.82Z"/>
<path d="M102.605 14.8L97.9966 2.20001H100.463L104.027 12.442L107.609 2.20001H110.039L105.431 14.8H102.605Z"/>
<path d="M112.077 14.8V2.20001H120.303V4.05401H114.381V7.51001H119.763V9.31001H114.381V12.946H120.303V14.8H112.077Z"/>
<path d="M123.023 14.8V2.20001H125.327L131.249 11.074V2.20001H133.553V14.8H131.249L125.327 5.94401V14.8H123.023Z"/>
<path d="M139.469 14.8V4.05401H135.797V2.20001H145.463V4.05401H141.773V14.8H139.469Z"/>
<path d="M152.57 15.016C151.646 15.016 150.812 14.836 150.068 14.476C149.324 14.104 148.73 13.546 148.286 12.802C147.854 12.058 147.638 11.116 147.638 9.97601V2.20001H149.942V9.99401C149.942 10.978 150.176 11.71 150.644 12.19C151.124 12.67 151.784 12.91 152.624 12.91C153.452 12.91 154.106 12.67 154.586 12.19C155.066 11.71 155.306 10.978 155.306 9.99401V2.20001H157.61V9.97601C157.61 11.116 157.382 12.058 156.926 12.802C156.47 13.546 155.858 14.104 155.09 14.476C154.334 14.836 153.494 15.016 152.57 15.016Z"/>
<path d="M160.502 14.8V2.20001H165.128C166.136 2.20001 166.964 2.37401 167.612 2.72201C168.272 3.05801 168.764 3.52001 169.088 4.10801C169.412 4.68401 169.574 5.32601 169.574 6.03401C169.574 6.80201 169.37 7.50401 168.962 8.14001C168.566 8.77601 167.942 9.23801 167.09 9.52601L169.7 14.8H167.054L164.714 9.83201H162.806V14.8H160.502ZM162.806 8.14001H164.984C165.752 8.14001 166.316 7.95401 166.676 7.58201C167.036 7.21001 167.216 6.71801 167.216 6.10601C167.216 5.50601 167.036 5.02601 166.676 4.66601C166.328 4.30601 165.758 4.12601 164.966 4.12601H162.806V8.14001Z"/>
<path d="M172.257 14.8V2.20001H180.483V4.05401H174.561V7.51001H179.943V9.31001H174.561V12.946H180.483V14.8H172.257Z"/>
<path d="M187.505 15.016C186.581 15.016 185.765 14.86 185.057 14.548C184.349 14.224 183.791 13.768 183.383 13.18C182.975 12.58 182.765 11.854 182.753 11.002H185.183C185.207 11.59 185.417 12.088 185.813 12.496C186.221 12.892 186.779 13.09 187.487 13.09C188.099 13.09 188.585 12.946 188.945 12.658C189.305 12.358 189.485 11.962 189.485 11.47C189.485 10.954 189.323 10.552 188.999 10.264C188.687 9.97601 188.267 9.74201 187.739 9.56201C187.211 9.38201 186.647 9.19001 186.047 8.98601C185.075 8.65001 184.331 8.21801 183.815 7.69001C183.311 7.16201 183.059 6.46001 183.059 5.58401C183.047 4.84001 183.221 4.20401 183.581 3.67601C183.953 3.13601 184.457 2.72201 185.093 2.43401C185.729 2.13401 186.461 1.98401 187.289 1.98401C188.129 1.98401 188.867 2.13401 189.503 2.43401C190.151 2.73401 190.655 3.15401 191.015 3.69401C191.387 4.23401 191.585 4.87601 191.609 5.62001H189.143C189.131 5.17601 188.957 4.78601 188.621 4.45001C188.297 4.10201 187.841 3.92801 187.253 3.92801C186.749 3.91601 186.323 4.04201 185.975 4.30601C185.639 4.55801 185.471 4.93001 185.471 5.42201C185.471 5.84201 185.603 6.17801 185.867 6.43001C186.131 6.67001 186.491 6.87401 186.947 7.04201C187.403 7.21001 187.925 7.39001 188.513 7.58201C189.137 7.79801 189.707 8.05001 190.223 8.33801C190.739 8.62601 191.153 9.01001 191.465 9.49001C191.777 9.95801 191.933 10.564 191.933 11.308C191.933 11.968 191.765 12.58 191.429 13.144C191.093 13.708 190.595 14.164 189.935 14.512C189.275 14.848 188.465 15.016 187.505 15.016Z"/>
</mask>
<path d="M10.2968 14.8V10.318L6.06677 2.20001H8.67677L11.4668 8.01401L14.2388 2.20001H16.8128L12.6008 10.318V14.8H10.2968Z" fill="#F6F5EF"/>
<path d="M16.5598 14.8L21.1678 2.20001H23.7598L28.3678 14.8H25.9198L24.9118 11.884H19.9978L18.9718 14.8H16.5598ZM20.6278 10.084H24.2818L22.4458 4.84601L20.6278 10.084Z" fill="#F6F5EF"/>
<path d="M35.5162 15.016C34.2442 15.016 33.1522 14.746 32.2402 14.206C31.3282 13.654 30.6262 12.892 30.1342 11.92C29.6422 10.936 29.3962 9.80201 29.3962 8.51801C29.3962 7.23401 29.6422 6.10001 30.1342 5.11601C30.6262 4.13201 31.3282 3.36401 32.2402 2.81201C33.1522 2.26001 34.2442 1.98401 35.5162 1.98401C37.0282 1.98401 38.2642 2.36201 39.2242 3.11801C40.1962 3.86201 40.8022 4.91201 41.0422 6.26801H38.5042C38.3482 5.58401 38.0122 5.05001 37.4962 4.66601C36.9922 4.27001 36.3202 4.07201 35.4802 4.07201C34.3162 4.07201 33.4042 4.46801 32.7442 5.26001C32.0842 6.05201 31.7542 7.13801 31.7542 8.51801C31.7542 9.89801 32.0842 10.984 32.7442 11.776C33.4042 12.556 34.3162 12.946 35.4802 12.946C36.3202 12.946 36.9922 12.766 37.4962 12.406C38.0122 12.034 38.3482 11.524 38.5042 10.876H41.0422C40.8022 12.172 40.1962 13.186 39.2242 13.918C38.2642 14.65 37.0282 15.016 35.5162 15.016Z" fill="#F6F5EF"/>
<path d="M43.6217 14.8V2.20001H45.9257V7.43801H51.5777V2.20001H53.8817V14.8H51.5777V9.31001H45.9257V14.8H43.6217Z" fill="#F6F5EF"/>
<path d="M59.8046 14.8V4.05401H56.1326V2.20001H65.7986V4.05401H62.1087V14.8H59.8046Z" fill="#F6F5EF"/>
<path d="M72.0645 14.8L76.6725 2.20001H79.2645L83.8725 14.8H81.4245L80.4165 11.884H75.5025L74.4765 14.8H72.0645ZM76.1325 10.084H79.7865L77.9505 4.84601L76.1325 10.084Z" fill="#F6F5EF"/>
<path d="M86.0356 14.8V2.20001H90.3376C91.8136 2.20001 93.0256 2.46401 93.9736 2.99201C94.9336 3.50801 95.6416 4.24001 96.0976 5.18801C96.5656 6.12401 96.7996 7.22801 96.7996 8.50001C96.7996 9.77201 96.5656 10.882 96.0976 11.83C95.6416 12.766 94.9336 13.498 93.9736 14.026C93.0256 14.542 91.8136 14.8 90.3376 14.8H86.0356ZM88.3396 12.82H90.2296C91.2856 12.82 92.1196 12.652 92.7316 12.316C93.3436 11.968 93.7816 11.476 94.0456 10.84C94.3096 10.192 94.4416 9.41201 94.4416 8.50001C94.4416 7.60001 94.3096 6.82601 94.0456 6.17801C93.7816 5.53001 93.3436 5.03201 92.7316 4.68401C92.1196 4.33601 91.2856 4.16201 90.2296 4.16201H88.3396V12.82Z" fill="#F6F5EF"/>
<path d="M102.605 14.8L97.9966 2.20001H100.463L104.027 12.442L107.609 2.20001H110.039L105.431 14.8H102.605Z" fill="#F6F5EF"/>
<path d="M112.077 14.8V2.20001H120.303V4.05401H114.381V7.51001H119.763V9.31001H114.381V12.946H120.303V14.8H112.077Z" fill="#F6F5EF"/>
<path d="M123.023 14.8V2.20001H125.327L131.249 11.074V2.20001H133.553V14.8H131.249L125.327 5.94401V14.8H123.023Z" fill="#F6F5EF"/>
<path d="M139.469 14.8V4.05401H135.797V2.20001H145.463V4.05401H141.773V14.8H139.469Z" fill="#F6F5EF"/>
<path d="M152.57 15.016C151.646 15.016 150.812 14.836 150.068 14.476C149.324 14.104 148.73 13.546 148.286 12.802C147.854 12.058 147.638 11.116 147.638 9.97601V2.20001H149.942V9.99401C149.942 10.978 150.176 11.71 150.644 12.19C151.124 12.67 151.784 12.91 152.624 12.91C153.452 12.91 154.106 12.67 154.586 12.19C155.066 11.71 155.306 10.978 155.306 9.99401V2.20001H157.61V9.97601C157.61 11.116 157.382 12.058 156.926 12.802C156.47 13.546 155.858 14.104 155.09 14.476C154.334 14.836 153.494 15.016 152.57 15.016Z" fill="#F6F5EF"/>
<path d="M160.502 14.8V2.20001H165.128C166.136 2.20001 166.964 2.37401 167.612 2.72201C168.272 3.05801 168.764 3.52001 169.088 4.10801C169.412 4.68401 169.574 5.32601 169.574 6.03401C169.574 6.80201 169.37 7.50401 168.962 8.14001C168.566 8.77601 167.942 9.23801 167.09 9.52601L169.7 14.8H167.054L164.714 9.83201H162.806V14.8H160.502ZM162.806 8.14001H164.984C165.752 8.14001 166.316 7.95401 166.676 7.58201C167.036 7.21001 167.216 6.71801 167.216 6.10601C167.216 5.50601 167.036 5.02601 166.676 4.66601C166.328 4.30601 165.758 4.12601 164.966 4.12601H162.806V8.14001Z" fill="#F6F5EF"/>
<path d="M172.257 14.8V2.20001H180.483V4.05401H174.561V7.51001H179.943V9.31001H174.561V12.946H180.483V14.8H172.257Z" fill="#F6F5EF"/>
<path d="M187.505 15.016C186.581 15.016 185.765 14.86 185.057 14.548C184.349 14.224 183.791 13.768 183.383 13.18C182.975 12.58 182.765 11.854 182.753 11.002H185.183C185.207 11.59 185.417 12.088 185.813 12.496C186.221 12.892 186.779 13.09 187.487 13.09C188.099 13.09 188.585 12.946 188.945 12.658C189.305 12.358 189.485 11.962 189.485 11.47C189.485 10.954 189.323 10.552 188.999 10.264C188.687 9.97601 188.267 9.74201 187.739 9.56201C187.211 9.38201 186.647 9.19001 186.047 8.98601C185.075 8.65001 184.331 8.21801 183.815 7.69001C183.311 7.16201 183.059 6.46001 183.059 5.58401C183.047 4.84001 183.221 4.20401 183.581 3.67601C183.953 3.13601 184.457 2.72201 185.093 2.43401C185.729 2.13401 186.461 1.98401 187.289 1.98401C188.129 1.98401 188.867 2.13401 189.503 2.43401C190.151 2.73401 190.655 3.15401 191.015 3.69401C191.387 4.23401 191.585 4.87601 191.609 5.62001H189.143C189.131 5.17601 188.957 4.78601 188.621 4.45001C188.297 4.10201 187.841 3.92801 187.253 3.92801C186.749 3.91601 186.323 4.04201 185.975 4.30601C185.639 4.55801 185.471 4.93001 185.471 5.42201C185.471 5.84201 185.603 6.17801 185.867 6.43001C186.131 6.67001 186.491 6.87401 186.947 7.04201C187.403 7.21001 187.925 7.39001 188.513 7.58201C189.137 7.79801 189.707 8.05001 190.223 8.33801C190.739 8.62601 191.153 9.01001 191.465 9.49001C191.777 9.95801 191.933 10.564 191.933 11.308C191.933 11.968 191.765 12.58 191.429 13.144C191.093 13.708 190.595 14.164 189.935 14.512C189.275 14.848 188.465 15.016 187.505 15.016Z" fill="#F6F5EF"/>
<path d="M10.2968 14.8V10.318L6.06677 2.20001H8.67677L11.4668 8.01401L14.2388 2.20001H16.8128L12.6008 10.318V14.8H10.2968Z" stroke="black" stroke-width="2" mask="url(#path-1-outside-1_3500_19)"/>
<path d="M16.5598 14.8L21.1678 2.20001H23.7598L28.3678 14.8H25.9198L24.9118 11.884H19.9978L18.9718 14.8H16.5598ZM20.6278 10.084H24.2818L22.4458 4.84601L20.6278 10.084Z" stroke="black" stroke-width="2" mask="url(#path-1-outside-1_3500_19)"/>
<path d="M35.5162 15.016C34.2442 15.016 33.1522 14.746 32.2402 14.206C31.3282 13.654 30.6262 12.892 30.1342 11.92C29.6422 10.936 29.3962 9.80201 29.3962 8.51801C29.3962 7.23401 29.6422 6.10001 30.1342 5.11601C30.6262 4.13201 31.3282 3.36401 32.2402 2.81201C33.1522 2.26001 34.2442 1.98401 35.5162 1.98401C37.0282 1.98401 38.2642 2.36201 39.2242 3.11801C40.1962 3.86201 40.8022 4.91201 41.0422 6.26801H38.5042C38.3482 5.58401 38.0122 5.05001 37.4962 4.66601C36.9922 4.27001 36.3202 4.07201 35.4802 4.07201C34.3162 4.07201 33.4042 4.46801 32.7442 5.26001C32.0842 6.05201 31.7542 7.13801 31.7542 8.51801C31.7542 9.89801 32.0842 10.984 32.7442 11.776C33.4042 12.556 34.3162 12.946 35.4802 12.946C36.3202 12.946 36.9922 12.766 37.4962 12.406C38.0122 12.034 38.3482 11.524 38.5042 10.876H41.0422C40.8022 12.172 40.1962 13.186 39.2242 13.918C38.2642 14.65 37.0282 15.016 35.5162 15.016Z" stroke="black" stroke-width="2" mask="url(#path-1-outside-1_3500_19)"/>
<path d="M43.6217 14.8V2.20001H45.9257V7.43801H51.5777V2.20001H53.8817V14.8H51.5777V9.31001H45.9257V14.8H43.6217Z" stroke="black" stroke-width="2" mask="url(#path-1-outside-1_3500_19)"/>
<path d="M59.8046 14.8V4.05401H56.1326V2.20001H65.7986V4.05401H62.1087V14.8H59.8046Z" stroke="black" stroke-width="2" mask="url(#path-1-outside-1_3500_19)"/>
<path d="M72.0645 14.8L76.6725 2.20001H79.2645L83.8725 14.8H81.4245L80.4165 11.884H75.5025L74.4765 14.8H72.0645ZM76.1325 10.084H79.7865L77.9505 4.84601L76.1325 10.084Z" stroke="black" stroke-width="2" mask="url(#path-1-outside-1_3500_19)"/>
<path d="M86.0356 14.8V2.20001H90.3376C91.8136 2.20001 93.0256 2.46401 93.9736 2.99201C94.9336 3.50801 95.6416 4.24001 96.0976 5.18801C96.5656 6.12401 96.7996 7.22801 96.7996 8.50001C96.7996 9.77201 96.5656 10.882 96.0976 11.83C95.6416 12.766 94.9336 13.498 93.9736 14.026C93.0256 14.542 91.8136 14.8 90.3376 14.8H86.0356ZM88.3396 12.82H90.2296C91.2856 12.82 92.1196 12.652 92.7316 12.316C93.3436 11.968 93.7816 11.476 94.0456 10.84C94.3096 10.192 94.4416 9.41201 94.4416 8.50001C94.4416 7.60001 94.3096 6.82601 94.0456 6.17801C93.7816 5.53001 93.3436 5.03201 92.7316 4.68401C92.1196 4.33601 91.2856 4.16201 90.2296 4.16201H88.3396V12.82Z" stroke="black" stroke-width="2" mask="url(#path-1-outside-1_3500_19)"/>
<path d="M102.605 14.8L97.9966 2.20001H100.463L104.027 12.442L107.609 2.20001H110.039L105.431 14.8H102.605Z" stroke="black" stroke-width="2" mask="url(#path-1-outside-1_3500_19)"/>
<path d="M112.077 14.8V2.20001H120.303V4.05401H114.381V7.51001H119.763V9.31001H114.381V12.946H120.303V14.8H112.077Z" stroke="black" stroke-width="2" mask="url(#path-1-outside-1_3500_19)"/>
<path d="M123.023 14.8V2.20001H125.327L131.249 11.074V2.20001H133.553V14.8H131.249L125.327 5.94401V14.8H123.023Z" stroke="black" stroke-width="2" mask="url(#path-1-outside-1_3500_19)"/>
<path d="M139.469 14.8V4.05401H135.797V2.20001H145.463V4.05401H141.773V14.8H139.469Z" stroke="black" stroke-width="2" mask="url(#path-1-outside-1_3500_19)"/>
<path d="M152.57 15.016C151.646 15.016 150.812 14.836 150.068 14.476C149.324 14.104 148.73 13.546 148.286 12.802C147.854 12.058 147.638 11.116 147.638 9.97601V2.20001H149.942V9.99401C149.942 10.978 150.176 11.71 150.644 12.19C151.124 12.67 151.784 12.91 152.624 12.91C153.452 12.91 154.106 12.67 154.586 12.19C155.066 11.71 155.306 10.978 155.306 9.99401V2.20001H157.61V9.97601C157.61 11.116 157.382 12.058 156.926 12.802C156.47 13.546 155.858 14.104 155.09 14.476C154.334 14.836 153.494 15.016 152.57 15.016Z" stroke="black" stroke-width="2" mask="url(#path-1-outside-1_3500_19)"/>
<path d="M160.502 14.8V2.20001H165.128C166.136 2.20001 166.964 2.37401 167.612 2.72201C168.272 3.05801 168.764 3.52001 169.088 4.10801C169.412 4.68401 169.574 5.32601 169.574 6.03401C169.574 6.80201 169.37 7.50401 168.962 8.14001C168.566 8.77601 167.942 9.23801 167.09 9.52601L169.7 14.8H167.054L164.714 9.83201H162.806V14.8H160.502ZM162.806 8.14001H164.984C165.752 8.14001 166.316 7.95401 166.676 7.58201C167.036 7.21001 167.216 6.71801 167.216 6.10601C167.216 5.50601 167.036 5.02601 166.676 4.66601C166.328 4.30601 165.758 4.12601 164.966 4.12601H162.806V8.14001Z" stroke="black" stroke-width="2" mask="url(#path-1-outside-1_3500_19)"/>
<path d="M172.257 14.8V2.20001H180.483V4.05401H174.561V7.51001H179.943V9.31001H174.561V12.946H180.483V14.8H172.257Z" stroke="black" stroke-width="2" mask="url(#path-1-outside-1_3500_19)"/>
<path d="M187.505 15.016C186.581 15.016 185.765 14.86 185.057 14.548C184.349 14.224 183.791 13.768 183.383 13.18C182.975 12.58 182.765 11.854 182.753 11.002H185.183C185.207 11.59 185.417 12.088 185.813 12.496C186.221 12.892 186.779 13.09 187.487 13.09C188.099 13.09 188.585 12.946 188.945 12.658C189.305 12.358 189.485 11.962 189.485 11.47C189.485 10.954 189.323 10.552 188.999 10.264C188.687 9.97601 188.267 9.74201 187.739 9.56201C187.211 9.38201 186.647 9.19001 186.047 8.98601C185.075 8.65001 184.331 8.21801 183.815 7.69001C183.311 7.16201 183.059 6.46001 183.059 5.58401C183.047 4.84001 183.221 4.20401 183.581 3.67601C183.953 3.13601 184.457 2.72201 185.093 2.43401C185.729 2.13401 186.461 1.98401 187.289 1.98401C188.129 1.98401 188.867 2.13401 189.503 2.43401C190.151 2.73401 190.655 3.15401 191.015 3.69401C191.387 4.23401 191.585 4.87601 191.609 5.62001H189.143C189.131 5.17601 188.957 4.78601 188.621 4.45001C188.297 4.10201 187.841 3.92801 187.253 3.92801C186.749 3.91601 186.323 4.04201 185.975 4.30601C185.639 4.55801 185.471 4.93001 185.471 5.42201C185.471 5.84201 185.603 6.17801 185.867 6.43001C186.131 6.67001 186.491 6.87401 186.947 7.04201C187.403 7.21001 187.925 7.39001 188.513 7.58201C189.137 7.79801 189.707 8.05001 190.223 8.33801C190.739 8.62601 191.153 9.01001 191.465 9.49001C191.777 9.95801 191.933 10.564 191.933 11.308C191.933 11.968 191.765 12.58 191.429 13.144C191.093 13.708 190.595 14.164 189.935 14.512C189.275 14.848 188.465 15.016 187.505 15.016Z" stroke="black" stroke-width="2" mask="url(#path-1-outside-1_3500_19)"/>
</g>
<defs>
<filter id="filter0_d_3500_19" x="0.418091" y="0.984009" width="196.515" height="23.032" filterUnits="userSpaceOnUse" color-interpolation-filters="sRGB">
<feFlood flood-opacity="0" result="BackgroundImageFix"/>
<feColorMatrix in="SourceAlpha" type="matrix" values="0 0 0 0 0 0 0 0 0 0 0 0 0 0 0 0 0 0 127 0" result="hardAlpha"/>
<feOffset dy="4"/>
<feGaussianBlur stdDeviation="2"/>
<feComposite in2="hardAlpha" operator="out"/>
<feColorMatrix type="matrix" values="0 0 0 0 0 0 0 0 0 0 0 0 0 0 0 0 0 0 0.25 0"/>
<feBlend mode="normal" in2="BackgroundImageFix" result="effect1_dropShadow_3500_19"/>
<feBlend mode="normal" in="SourceGraphic" in2="effect1_dropShadow_3500_19" result="shape"/>
</filter>
</defs>
</svg>
